# xmcd CD database file
#
# Track frame offsets:
#	150
#	20156
#	40734
#	58733
#	75652
#	93211
#
# Disc length: 1601 seconds
#
# Revision: 0
# Processed by: cddbd v1.5.1PL0 Copyright (c) Steve Scherf et al.
# Submitted via: CDex 1.51
#
DISCID=42063f06
DTITLE=藤みさき+ - コバルト
DYEAR=2004
DGENRE=ポップ (一般)
TTITLE0=風奏曲(Apocalypse主題歌)
TTITLE1=EK
TTITLE2=Sing A Song!
TTITLE3=きみとぼくのうた
TTITLE4=Flyaway(TUBASA2 ED曲)
TTITLE5=Cobalt
EXTD=YEAR: 2004
EXTT0=
EXTT1=
EXTT2=
EXTT3=
EXTT4=
EXTT5=
PLAYORDER=
